<svg xmlns="http://www.w3.org/2000/svg" xmlns:xlink="http://www.w3.org/1999/xlink" width="30px" height="30px" viewBox="0 0 30 30" version="1.1">
<g id="surface1">
<path style=" stroke:none;fill-rule:nonzero;fill:rgb(90.980392%,25.490196%,25.490196%);fill-opacity:1;" d="M 0.246094 14.945312 C 0.246094 6.773438 6.867188 0.15625 15.042969 0.15625 C 23.21875 0.15625 29.84375 6.773438 29.84375 14.945312 C 29.84375 23.117188 23.21875 29.734375 15.042969 29.734375 C 6.867188 29.734375 0.246094 23.117188 0.246094 14.945312 Z M 0.246094 14.945312 "/>
<path style="fill-rule:nonzero;fill:rgb(100%,100%,100%);fill-opacity:1;stroke-width:2;stroke-linecap:butt;stroke-linejoin:round;stroke:rgb(100%,100%,100%);stroke-opacity:1;stroke-miterlimit:4;" d="M 94.728906 186.991667 C 94.728906 140.045833 132.754167 102.00625 179.705729 102.00625 C 226.657292 102.00625 264.721875 140.045833 264.721875 186.991667 C 264.721875 233.977083 226.657292 272.016667 179.705729 272.016667 C 132.754167 272.016667 94.728906 233.977083 94.728906 186.991667 Z M 94.728906 186.991667 " transform="matrix(0.0993377,0,0,0.0986842,0,0)"/>
<path style="fill-rule:nonzero;fill:rgb(100%,100%,100%);fill-opacity:1;stroke-width:2;stroke-linecap:butt;stroke-linejoin:round;stroke:rgb(100%,100%,100%);stroke-opacity:1;stroke-miterlimit:4;" d="M 69.680208 120.333333 C 69.680208 92.15 92.644792 69.35 120.957292 69.35 C 149.269792 69.35 172.195052 92.15 172.195052 120.333333 C 172.195052 148.477083 149.269792 171.277083 120.957292 171.277083 C 92.644792 171.277083 69.680208 148.477083 69.680208 120.333333 Z M 69.680208 120.333333 " transform="matrix(0.0993377,0,0,0.0986842,0,0)"/>
<path style=" stroke:none;fill-rule:nonzero;fill:rgb(90.980392%,25.490196%,25.490196%);fill-opacity:1;" d="M 24.347656 19.660156 C 23.613281 22.453125 21.066406 24.476562 18.136719 24.589844 C 15.207031 24.707031 12.625 22.886719 11.84375 20.152344 C 11.0625 17.417969 12.273438 14.453125 14.800781 12.925781 Z M 24.347656 19.660156 "/>
<path style=" stroke:none;fill-rule:nonzero;fill:rgb(90.980392%,25.490196%,25.490196%);fill-opacity:1;" d="M 16.699219 12.539062 C 16.144531 14.308594 14.464844 15.488281 12.601562 15.417969 C 10.734375 15.34375 9.152344 14.039062 8.742188 12.230469 C 8.328125 10.421875 9.191406 8.5625 10.839844 7.699219 Z M 16.699219 12.539062 "/>
<path style="fill-rule:nonzero;fill:rgb(100%,100%,100%);fill-opacity:1;stroke-width:2;stroke-linecap:butt;stroke-linejoin:round;stroke:rgb(100%,100%,100%);stroke-opacity:1;stroke-miterlimit:4;" d="M 70.523984 138.083302 L 276.53825 138.072896 L 276.545735 166.11179 L 70.504704 166.093033 Z M 70.523984 138.083302 " transform="matrix(0.0731863,0.0667277,-0.0671696,0.0727048,14.75423,-7.628036)"/>
<path style="fill-rule:nonzero;fill:rgb(100%,100%,100%);fill-opacity:1;stroke-width:2;stroke-linecap:butt;stroke-linejoin:round;stroke:rgb(100%,100%,100%);stroke-opacity:1;stroke-miterlimit:4;" d="M 261.222135 214.225 L 245.414323 203.497917 " transform="matrix(0.0993377,0,0,0.0986842,0,0)"/>
<path style="fill-rule:nonzero;fill:rgb(100%,100%,100%);fill-opacity:1;stroke-width:2;stroke-linecap:butt;stroke-linejoin:round;stroke:rgb(100%,100%,100%);stroke-opacity:1;stroke-miterlimit:4;" d="M 49.744458 72.180722 C 49.756972 51.877336 66.176335 35.4628 86.471513 35.456122 C 106.766691 35.449443 123.212095 51.910992 123.181893 72.179258 L 104.831373 72.175173 C 104.828797 62.049942 96.606095 53.819168 86.458506 53.822507 C 76.34627 53.808041 68.127756 62.041772 68.094978 72.184807 Z M 49.744458 72.180722 " transform="matrix(0.0446827,-0.0881375,0.0887212,0.0443887,-0.0485486,10.543625)"/>
</g>
</svg>
